<svg preserveAspectRatio="none" overflow="visible" style="display: block;" width="161.5" height="90" viewBox="0 0 161.5 90" fill="none" xmlns="http://www.w3.org/2000/svg">
<g id="_&#208;&#161;&#208;&#187;&#208;&#190;&#208;&#185;_1" clip-path="url(#clip0_0_4)">
<path id="Vector" d="M12.6381 27.8633C12.3199 28.0905 11.8654 28.2269 11.2745 28.2269C10.6836 28.2269 10.1381 28.0905 9.72902 27.8178C9.31993 27.5451 9.00174 27.1814 8.77447 26.6814L6.91083 27.2269C7.18356 27.9996 7.72902 28.5905 8.45629 28.9996C9.22902 29.4087 10.1381 29.5905 11.229 29.5905C12.3199 29.5905 13.3654 29.3178 14.1381 28.7269C14.8654 28.136 15.2745 27.4087 15.2745 26.4542C15.2745 25.4996 15.0017 24.8633 14.4108 24.3633C13.8654 23.8633 12.9108 23.4996 11.6381 23.2269C10.7745 23.0451 10.1381 22.8178 9.81993 22.636C9.45629 22.4542 9.31993 22.136 9.31993 21.8178C9.31993 21.4996 9.45629 21.136 9.77447 20.9087C10.0927 20.6814 10.5017 20.5451 11.0472 20.5451C11.5927 20.5451 12.0017 20.636 12.3654 20.9087C12.729 21.136 12.9563 21.4542 13.1381 21.9087L14.9563 21.3633C14.6836 20.6814 14.229 20.136 13.5017 19.7724C12.8199 19.4087 12.0017 19.2269 11.0472 19.2269C10.0927 19.2269 9.63811 19.3633 9.0472 19.5905C8.45629 19.8178 8.00174 20.1814 7.68356 20.636C7.36538 21.0905 7.18356 21.636 7.18356 22.2269C7.18356 23.0905 7.50174 23.7724 8.09265 24.2724C8.68356 24.7724 9.63811 25.136 10.9563 25.4087C11.8199 25.5905 12.3654 25.7724 12.6836 25.9542C13.0017 26.1814 13.1381 26.4542 13.1381 26.8633C13.1381 27.2724 12.9563 27.5905 12.6381 27.8178V27.8633Z" fill="white"/>
<path id="Vector_2" d="M19.4545 28.1359C19.6818 28.454 20 28.7722 20.4091 29.0449C21 29.454 21.7273 29.6359 22.5 29.6359C23.2727 29.6359 24 29.454 24.6364 29.0449C25.2727 28.6359 25.8182 28.0449 26.1818 27.2722C26.5454 26.4995 26.7727 25.5449 26.7727 24.454C26.7727 23.3631 26.5909 22.4086 26.2273 21.6359C25.8636 20.8631 25.3636 20.2722 24.7727 19.8631C24.1818 19.454 23.5 19.2722 22.7273 19.2722C21.9545 19.2722 21.1364 19.454 20.5 19.8631C20 20.1813 19.6364 20.5904 19.3182 21.0904V19.4995H16.9545V33.4086H19.4091V28.1813L19.4545 28.1359ZM19.4545 22.6359C19.6818 22.0904 20 21.6359 20.4545 21.3177C20.9091 20.954 21.4091 20.8177 21.9545 20.8177C22.5 20.8177 23.2273 21.1359 23.6364 21.7268C24.0454 22.3177 24.2273 23.2268 24.2273 24.454C24.2273 25.6813 24 26.5449 23.5909 27.1813C23.1818 27.8177 22.5909 28.1359 21.8182 28.1359C21.0454 28.1359 20.7273 27.954 20.3182 27.6359C19.8636 27.2722 19.5909 26.8177 19.4091 26.2722V22.6813H19.4545V22.6359Z" fill="white"/>
<path id="Vector_3" d="M30.366 28.954C31.0933 29.4086 31.9569 29.5904 32.9115 29.5904C33.866 29.5904 34.866 29.3177 35.5933 28.8177C36.3206 28.3177 36.8206 27.5904 37.1388 26.7268L35.2297 26.2268C35.0478 26.7722 34.7751 27.2268 34.4115 27.5904C34.0478 27.954 33.5478 28.0904 32.9569 28.0904C32.366 28.0904 31.9569 27.954 31.5933 27.6358C31.2297 27.3177 30.9569 26.8631 30.7751 26.3177C30.6388 25.8177 30.5478 25.2722 30.5478 24.6813H37.5024V23.8631C37.5024 22.9086 37.3206 22.0904 36.9115 21.3631C36.5478 20.6359 36.0024 20.0904 35.2751 19.7268C34.5933 19.3631 33.7751 19.1813 32.9115 19.1813C32.0478 19.1813 31.0933 19.4086 30.366 19.8177C29.6388 20.2268 29.0478 20.8631 28.6388 21.6358C28.2297 22.4086 28.0024 23.3177 28.0024 24.4086C28.0024 25.4995 28.2297 26.3631 28.6388 27.1359C29.0478 27.9086 29.6388 28.5449 30.366 28.954ZM30.7751 22.454C30.9569 21.9086 31.2297 21.454 31.5933 21.1359C31.9569 20.8177 32.4115 20.6359 32.9569 20.6359C33.5024 20.6359 34.2297 20.9086 34.5933 21.4995C34.9115 22.0449 35.0933 22.6813 35.1388 23.4086H30.5933C30.5933 23.0449 30.6842 22.7268 30.7751 22.454Z" fill="white"/>
<path id="Vector_4" d="M41.0462 28.9995C41.7735 29.4086 42.6372 29.6359 43.5917 29.6359C44.5462 29.6359 45.5917 29.3631 46.3644 28.8177C47.0917 28.2722 47.6372 27.4995 47.9553 26.5449L46.0008 26.0449C45.819 26.6359 45.5462 27.1359 45.1372 27.5449C44.7281 27.9086 44.2281 28.1359 43.6372 28.1359C43.0462 28.1359 42.6372 27.9995 42.2735 27.6813C41.9099 27.3631 41.6826 26.954 41.5008 26.4086C41.319 25.8631 41.2281 25.2268 41.2281 24.454C41.2281 23.6813 41.319 23.0449 41.5008 22.4995C41.6826 21.954 41.9553 21.4995 42.2735 21.2268C42.6372 20.9086 43.0917 20.7722 43.6372 20.7722C44.1826 20.7722 44.6372 20.954 45.0008 21.3631C45.3644 21.7268 45.5917 22.2722 45.6826 22.9086H48.0008C47.8644 21.8177 47.4099 20.9086 46.5917 20.2722C45.819 19.6359 44.819 19.2722 43.5462 19.2722C42.2735 19.2722 41.7281 19.4995 41.0008 19.9086C40.2735 20.3177 39.6826 20.954 39.2735 21.7268C38.8644 22.4995 38.6372 23.4086 38.6372 24.4995C38.6372 25.5904 38.8644 26.454 39.2735 27.2268C39.6826 27.9995 40.2735 28.6359 41.0008 29.0449L41.0462 28.9995Z" fill="white"/>
<path id="Vector_5" d="M52.2714 19.4087H49.8168V29.4087H52.2714V19.4087Z" fill="white"/>
<path id="Vector_6" d="M52.2744 15.636H49.729V18.0906H52.2744V15.636Z" fill="white"/>
<path id="Vector_7" d="M57.957 23.5449C56.7298 23.6813 55.8207 23.9995 55.1389 24.5449C54.457 25.0449 54.1389 25.8177 54.1389 26.7722C54.1389 27.7268 54.4116 28.2722 54.957 28.7722C55.5025 29.2722 56.2298 29.5449 57.0934 29.5449C57.957 29.5449 58.548 29.3631 59.1389 28.9995C59.6389 28.6813 60.048 28.2722 60.3661 27.8177C60.3661 28.3177 60.457 28.8177 60.548 29.4086H62.7752C62.6389 28.1359 62.5934 27.1359 62.5934 26.4086V22.5449C62.5934 21.454 62.2298 20.6359 61.548 20.0904C60.8661 19.5449 59.957 19.2722 58.7752 19.2722C57.5934 19.2722 56.8661 19.4995 56.1389 19.954C55.4116 20.4086 54.9116 21.0449 54.5934 21.9086L56.5934 22.4086C56.7752 21.9086 57.048 21.5449 57.3661 21.2268C57.7298 20.9086 58.1389 20.7722 58.6389 20.7722C59.1389 20.7722 59.548 20.9086 59.8207 21.2268C60.0934 21.4995 60.2298 21.954 60.2298 22.5449V23.454C59.457 23.454 58.7298 23.5449 57.957 23.6359V23.5449ZM60.2298 24.6813V26.4995C60.0025 26.954 59.6389 27.3177 59.2298 27.5904C58.8207 27.8631 58.3661 27.9995 57.8661 27.9995C57.3661 27.9995 57.0934 27.8631 56.8207 27.6359C56.548 27.4086 56.457 27.0449 56.457 26.6359C56.457 26.2268 56.6389 25.7722 56.957 25.454C57.2752 25.1813 57.7752 24.954 58.3661 24.8631C59.0025 24.7722 59.6389 24.6813 60.2298 24.6813Z" fill="white"/>
<path id="Vector_8" d="M67.2282 14.9093H64.7736V29.4547H67.2282V14.9093Z" fill="white"/>
<path id="Vector_9" d="M74.3647 22.7266H69.1374V24.5448H74.3647V22.7266Z" fill="white"/>
<path id="Vector_10" d="M81.4565 27.8633C81.1383 28.0905 80.6837 28.2269 80.0928 28.2269C79.5019 28.2269 78.9565 28.0905 78.5474 27.8178C78.1383 27.5451 77.8201 27.1814 77.5928 26.6814L75.7292 27.2269C76.0019 27.9996 76.5474 28.5905 77.2746 28.9996C78.0474 29.4087 78.9565 29.5905 80.0474 29.5905C81.1383 29.5905 82.1837 29.3178 82.9565 28.7269C83.6837 28.136 84.0928 27.4087 84.0928 26.4542C84.0928 25.4996 83.8201 24.8633 83.2292 24.3633C82.6837 23.8633 81.7292 23.4996 80.4565 23.2269C79.5928 23.0451 78.9565 22.8178 78.6383 22.636C78.2746 22.4542 78.0928 22.136 78.0928 21.8178C78.0928 21.4996 78.2292 21.136 78.5474 20.9087C78.8656 20.6814 79.2746 20.5451 79.8201 20.5451C80.3656 20.5451 80.7746 20.636 81.1383 20.9087C81.5019 21.136 81.7292 21.4542 81.911 21.9087L83.7292 21.3633C83.4565 20.6814 83.0019 20.136 82.2746 19.7724C81.5928 19.4087 80.7746 19.2269 79.8201 19.2269C78.8656 19.2269 78.411 19.3633 77.8201 19.5905C77.2292 19.8178 76.7746 20.1814 76.4565 20.636C76.1383 21.0905 75.9565 21.636 75.9565 22.2269C75.9565 23.0905 76.2746 23.7724 76.8656 24.2724C77.4565 24.7724 78.411 25.136 79.7292 25.4087C80.5928 25.5905 81.1383 25.7724 81.4565 25.9542C81.7746 26.1814 81.911 26.4542 81.911 26.8633C81.911 27.2724 81.7292 27.5905 81.411 27.8178H81.4565V27.8633Z" fill="white"/>
<path id="Vector_11" d="M86.2277 26.1814C86.2277 27.3632 86.5004 28.2268 87.0913 28.7723C87.6822 29.3177 88.5459 29.545 89.7277 29.545C90.9095 29.545 90.2731 29.545 90.5459 29.4995C90.8186 29.4995 91.0459 29.4086 91.2277 29.3632V27.8632C90.9095 27.9541 90.5913 27.9541 90.2277 27.9541C89.6822 27.9541 89.3186 27.8177 89.0459 27.545C88.7731 27.2723 88.6822 26.7723 88.6822 26.1359V21.0905H91.0459V19.4086H88.6822V16.4995H86.7731L86.5913 18.2723C86.5913 18.7268 86.455 18.9995 86.3186 19.1814C86.1822 19.3177 86.0004 19.4086 85.7277 19.4086H84.7731V21.0905H86.2277V26.1814Z" fill="white"/>
<path id="Vector_12" d="M95.6373 30.1813C95.4554 30.7268 95.2282 31.0904 94.9554 31.3177C94.6827 31.5449 94.3191 31.6359 93.8191 31.6359C93.3191 31.6359 93.2736 31.6359 93.0009 31.4995V33.2722C93.3645 33.3631 93.6827 33.4086 94.0464 33.4086C94.91 33.4086 95.5918 33.1813 96.1373 32.7268C96.6827 32.2722 97.0918 31.5449 97.4554 30.4995L101.319 19.454H99.2282L96.9554 26.7722L94.3191 19.454H91.7736L95.8191 29.7722L95.6373 30.2268V30.1813Z" fill="white"/>
<path id="Vector_13" d="M105.182 14.9093H102.727V29.4547H105.182V14.9093Z" fill="white"/>
<path id="Vector_14" d="M109.318 28.954C110.045 29.4086 110.909 29.5904 111.864 29.5904C112.818 29.5904 113.818 29.3177 114.545 28.8177C115.273 28.3177 115.773 27.5904 116.091 26.7268L114.182 26.2268C114 26.7722 113.727 27.2268 113.364 27.5904C113 27.954 112.5 28.0904 111.909 28.0904C111.318 28.0904 110.909 27.954 110.545 27.6358C110.182 27.3177 109.909 26.8631 109.727 26.3177C109.591 25.8177 109.5 25.2722 109.5 24.6813H116.455V23.8631C116.455 22.9086 116.273 22.0904 115.864 21.3631C115.5 20.6359 114.955 20.0904 114.227 19.7268C113.545 19.3631 112.727 19.1813 111.864 19.1813C111 19.1813 110.045 19.4086 109.318 19.8177C108.591 20.2268 108 20.8631 107.591 21.6358C107.182 22.4086 106.955 23.3177 106.955 24.4086C106.955 25.4995 107.182 26.3631 107.591 27.1359C108 27.9086 108.591 28.5449 109.318 28.954ZM109.727 22.454C109.909 21.9086 110.182 21.454 110.545 21.1359C110.909 20.8177 111.364 20.6359 111.909 20.6359C112.455 20.6359 113.182 20.9086 113.545 21.4995C113.864 22.0449 114.045 22.6813 114.091 23.4086H109.545C109.545 23.0449 109.636 22.7268 109.727 22.454Z" fill="white"/>
<path id="Vector_15" d="M161.5 43.8182H137.637V42.5909H132.819V37.8182H131.637V4.77273H137.637V0H131.637H129.228H123.273V4.77273H129.228V37.8182H128.046V42.5909H123.273V43.8182H0.000433922V46.1818H123.273V47.4091H128.046V52.1818H129.228V85.2273H123.273V90H129.228H131.637H137.637V85.2273H131.637V52.1818H132.819V47.4091H137.637V46.1818H161.5V43.8182Z" fill="white"/>
<path id="Vector_16" d="M10.9079 66.5906C10.5898 66.8633 10.1352 66.9996 9.54431 66.9996C8.9534 66.9996 8.54431 66.8633 8.18068 66.636C7.77159 66.4087 7.49886 66.0451 7.31704 65.5906L6.86249 65.7269C7.08977 66.2724 7.40795 66.6815 7.90795 66.9542C8.40795 67.2269 8.9534 67.3633 9.54431 67.3633C10.1352 67.3633 10.7716 67.1815 11.2261 66.8633C11.6807 66.5451 11.9079 66.0906 11.9079 65.5451C11.9079 64.9996 11.7261 64.5906 11.3625 64.3178C10.9989 64.0451 10.4079 63.7724 9.63522 63.5906C8.9534 63.4087 8.40795 63.2269 8.13522 63.0451C7.81704 62.8633 7.68068 62.5451 7.68068 62.1815C7.68068 61.8178 7.86249 61.4542 8.18068 61.1815C8.49886 60.9087 8.90795 60.8178 9.4534 60.8178C9.99886 60.8178 10.317 60.9087 10.6352 61.136C10.9989 61.3633 11.2261 61.636 11.3625 62.0451L11.817 61.9087C11.6352 61.4542 11.317 61.0906 10.9079 60.8178C10.4989 60.5451 9.99886 60.4542 9.4534 60.4542C8.90795 60.4542 8.63522 60.5451 8.31704 60.6815C7.9534 60.8178 7.68068 61.0451 7.49886 61.3178C7.31704 61.5906 7.18068 61.9087 7.18068 62.2724C7.18068 62.636 7.36249 63.1815 7.72613 63.4542C8.08977 63.7269 8.68068 63.9542 9.49886 64.136C10.1807 64.2724 10.6807 64.4996 10.9534 64.6815C11.2716 64.9087 11.4079 65.2269 11.4079 65.636C11.4079 66.0451 11.2261 66.4087 10.9079 66.636V66.5906Z" fill="white"/>
<path id="Vector_17" d="M18.0011 60.8633C17.592 60.5906 17.092 60.4542 16.592 60.4542C16.092 60.4542 15.4557 60.636 14.9557 60.9996C14.592 61.2724 14.2738 61.636 14.092 62.0451V60.5906H13.5466V69.8633H14.1375V65.9542C14.3193 66.3178 14.592 66.5906 14.9557 66.8633C15.4102 67.1815 15.9557 67.3633 16.5466 67.3633C17.1375 67.3633 17.592 67.2269 18.0011 66.9542C18.4557 66.6815 18.7738 66.2724 19.0466 65.7724C19.3193 65.2269 19.4102 64.636 19.4102 63.9087C19.4102 63.1815 19.2738 62.5451 19.0466 62.0451C18.7738 61.4996 18.4557 61.136 18.0466 60.8633H18.0011ZM18.1375 66.1815C17.6829 66.7269 17.1375 66.9996 16.4557 66.9996C15.7738 66.9996 15.4102 66.8178 15.0011 66.4996C14.5466 66.1815 14.2738 65.7269 14.1375 65.1815V62.8178C14.2738 62.2269 14.592 61.7724 15.0466 61.4087C15.5011 61.0451 16.0011 60.8633 16.5466 60.8633C17.092 60.8633 17.8193 61.136 18.2284 61.6815C18.6375 62.2269 18.8648 62.9542 18.8648 63.9542C18.8648 64.9542 18.6375 65.6815 18.2284 66.2269H18.1375V66.1815Z" fill="white"/>
<path id="Vector_18" d="M24.9531 60.8633C24.544 60.5906 24.044 60.4542 23.544 60.4542C23.044 60.4542 22.544 60.5906 22.0895 60.8633C21.635 61.136 21.2713 61.5451 21.044 62.0451C20.7713 62.5906 20.635 63.1815 20.635 63.9087C20.635 64.636 20.7713 65.2724 21.044 65.7724C21.3168 66.3178 21.635 66.6815 22.0895 66.9542C22.544 67.2269 23.044 67.3633 23.5895 67.3633C24.135 67.3633 24.8168 67.2269 25.2259 66.8633C25.635 66.5451 25.9531 66.136 26.1804 65.5906L25.7259 65.4542C25.544 65.9087 25.3168 66.2724 24.9531 66.5451C24.635 66.8178 24.1804 66.9542 23.635 66.9542C23.0895 66.9542 22.8168 66.8178 22.4531 66.5906C22.0895 66.3633 21.8168 65.9996 21.5895 65.5451C21.4077 65.0906 21.2713 64.5451 21.2713 63.9087H26.4077V63.6815C26.4077 63.0451 26.2713 62.4542 26.044 61.9542C25.8168 61.4542 25.4531 61.0906 25.044 60.8178H24.9531V60.8633ZM21.2259 63.5451C21.2259 63.0451 21.3622 62.5906 21.544 62.2269C21.7713 61.7724 22.044 61.4087 22.4077 61.1815C22.7713 60.9542 23.135 60.8178 23.5895 60.8178C24.2713 60.8178 24.7713 61.0906 25.1804 61.5906C25.5895 62.0906 25.7713 62.7269 25.7713 63.5451H21.2259Z" fill="white"/>
<path id="Vector_19" d="M29.3181 61.1813C29.6817 60.9541 30.0908 60.8177 30.5454 60.8177C30.9999 60.8177 31.5908 60.9995 31.909 61.3177C32.2726 61.6359 32.4999 62.0904 32.6363 62.5904H33.2272C33.0908 61.9541 32.8181 61.4086 32.3181 60.9995C31.8635 60.5904 31.2726 60.4086 30.5454 60.4086C29.8181 60.4086 29.4999 60.545 29.0454 60.8177C28.5908 61.0904 28.2272 61.4995 27.9544 61.9995C27.6817 62.4995 27.5454 63.1359 27.5454 63.8631C27.5454 64.5904 27.6817 65.2268 27.9544 65.7268C28.2272 66.2722 28.5454 66.6359 28.9999 66.9086C29.4544 67.1813 29.9544 67.3177 30.4999 67.3177C31.0454 67.3177 31.7726 67.1359 32.1817 66.7722C32.6363 66.4086 32.9544 65.9541 33.1363 65.4086L32.6817 65.2722C32.4999 65.7268 32.2272 66.1359 31.8635 66.4541C31.4999 66.7722 31.0454 66.9086 30.4999 66.9086C29.9544 66.9086 29.6817 66.7722 29.3181 66.545C28.9544 66.3177 28.6817 65.9541 28.4999 65.4995C28.3181 65.045 28.1817 64.4995 28.1817 63.8177C28.1817 63.1359 28.2726 62.6359 28.4999 62.1359C28.7272 61.6813 28.9999 61.3177 29.3635 61.0904V61.1813H29.3181Z" fill="white"/>
<path id="Vector_20" d="M35.4554 60.5901H34.8644V67.2265H35.4554V60.5901Z" fill="white"/>
<path id="Vector_21" d="M35.4547 58.3182H34.8183V59.4545H35.4547V58.3182Z" fill="white"/>
<path id="Vector_22" d="M42.0903 62.5451C42.0903 61.8633 41.863 61.3633 41.4539 60.9996C41.0448 60.636 40.4994 60.4542 39.9085 60.4542C39.3176 60.4542 38.8176 60.5906 38.363 60.8633C37.9085 61.136 37.5903 61.5451 37.4085 62.0451L37.9085 62.2269C38.0903 61.8178 38.363 61.4542 38.6812 61.2269C39.0448 60.9542 39.4539 60.8178 39.863 60.8178C40.2721 60.8178 40.7721 60.9542 41.0448 61.2269C41.363 61.4996 41.4994 61.9087 41.4994 62.4542V63.4542C40.7266 63.4542 40.0448 63.4996 39.4994 63.5451C38.7721 63.5906 38.1812 63.8178 37.7721 64.136C37.3176 64.4542 37.0903 64.9087 37.0903 65.5451C37.0903 66.1815 37.2721 66.4996 37.6357 66.8178C37.9994 67.136 38.4539 67.2724 39.0448 67.2724C39.6357 67.2724 40.2721 67.0906 40.7266 66.7724C41.1357 66.4996 41.4085 66.136 41.5903 65.7724C41.5903 66.136 41.6357 66.5906 41.7266 67.1815H42.2266C42.1357 66.2724 42.0903 65.5451 42.0903 64.9542V62.4542V62.5451ZM41.4994 65.2269C41.363 65.6815 41.0448 66.0906 40.6357 66.4542C40.1812 66.7724 39.6812 66.9542 39.1357 66.9542C38.5903 66.9542 38.3176 66.8178 38.0448 66.5906C37.7721 66.3633 37.6357 65.9996 37.6357 65.5906C37.6357 65.1815 37.8176 64.7724 38.1357 64.4996C38.4994 64.2269 38.9539 64.0906 39.5448 64.0451C40.2266 63.9996 40.863 63.9542 41.4994 63.9542V65.2724V65.2269Z" fill="white"/>
<path id="Vector_23" d="M44.6377 57.5456H44.0468V67.2274H44.6377V57.5456Z" fill="white"/>
<path id="Vector_24" d="M53.5455 66.8637C53.9546 66.591 54.2273 66.2273 54.4091 65.8637C54.4091 66.2273 54.4546 66.6819 54.5455 67.2728H55.0455C54.9546 66.3637 54.9091 65.6364 54.9091 65.0455V62.5455C54.9091 61.8637 54.6819 61.3637 54.2728 61.0001C53.8637 60.6364 53.3182 60.5001 52.7273 60.5001C52.1364 60.5001 51.6364 60.6364 51.1819 60.9091C50.7273 61.1819 50.4091 61.591 50.2273 62.091L50.7273 62.2728C50.9091 61.8637 51.1819 61.5001 51.5 61.2728C51.8637 61.0001 52.2728 60.8637 52.6819 60.8637C53.0909 60.8637 53.5909 61.0001 53.8637 61.2728C54.1819 61.5455 54.3182 61.9546 54.3182 62.5001V63.5001C53.5455 63.5001 52.8637 63.5455 52.3182 63.591C51.5909 63.6819 51 63.8637 50.5909 64.1819C50.1364 64.5001 49.9091 64.9546 49.9091 65.591C49.9091 66.2273 50.0909 66.5455 50.4546 66.8637C50.8182 67.1819 51.2728 67.3182 51.8637 67.3182C52.4546 67.3182 53.0909 67.1364 53.5455 66.8182V66.8637ZM50.5 65.591C50.5 65.091 50.6819 64.7728 51 64.5001C51.3637 64.2273 51.8182 64.091 52.4091 64.0455C53.0909 64.0001 53.7273 63.9546 54.3637 63.9546V65.2728C54.2273 65.7273 53.9091 66.1364 53.5 66.5001C53.0455 66.8182 52.5455 67.0001 52 67.0001C51.4546 67.0001 51.1819 66.8637 50.9091 66.6364C50.6364 66.4092 50.5 66.0455 50.5 65.6364V65.591Z" fill="white"/>
<path id="Vector_25" d="M58.0008 66.5453C57.7735 66.3181 57.6826 65.909 57.6826 65.4544V61.0453H59.5008V60.6362H57.6826V58.8181H57.2735L57.1826 60.0453C57.1826 60.2726 57.1371 60.4544 57.0462 60.5453C57.0008 60.6362 56.8644 60.6817 56.6826 60.6817H55.9099V61.0908H57.0008V65.5908C57.0008 66.1817 57.1371 66.6362 57.4553 66.9544C57.728 67.2726 58.1826 67.409 58.7735 67.409C59.3644 67.409 59.0462 67.409 59.1826 67.409C59.3189 67.409 59.4553 67.3635 59.5462 67.3181V66.909C59.3189 66.9999 59.0917 66.9999 58.7735 66.9999C58.4553 66.9999 58.0917 66.8635 57.8644 66.6362L58.0008 66.5453Z" fill="white"/>
<path id="Vector_26" d="M68.0465 60.4542C67.5465 60.4542 67.0465 60.5906 66.6374 60.8633C66.2283 61.136 65.9102 61.4542 65.592 61.8633C65.5011 61.4997 65.3647 61.1815 65.092 60.9087C64.8192 60.636 64.3647 60.4542 63.8192 60.4542C63.2738 60.4542 62.8647 60.5906 62.4556 60.8633C62.0465 61.136 61.7283 61.4542 61.4102 61.8178V60.5906H60.8647V67.2269H61.4556V62.2724C61.7283 61.8633 62.092 61.4996 62.5011 61.2724C62.9101 60.9996 63.3192 60.8633 63.7283 60.8633C64.1374 60.8633 64.5011 60.9996 64.7283 61.3178C64.9556 61.636 65.092 62.0451 65.092 62.636V67.2269H65.6829V62.2724C66.0011 61.8633 66.3647 61.4996 66.7738 61.2724C67.1829 60.9996 67.592 60.8633 68.0011 60.8633C68.4102 60.8633 68.7738 60.9996 69.0011 61.3178C69.2283 61.636 69.3647 62.0451 69.3647 62.636V67.2269H69.9556V62.5451C69.9556 61.8633 69.8192 61.3178 69.5011 60.9996C69.1829 60.636 68.7283 60.4542 68.1374 60.4542H68.0465Z" fill="white"/>
<path id="Vector_27" d="M75.9995 60.8633C75.5449 60.5906 75.0449 60.4542 74.4995 60.4542C73.954 60.4542 73.454 60.5906 72.9995 60.8633C72.5449 61.136 72.1813 61.5451 71.9085 62.0451C71.6358 62.5451 71.4995 63.1815 71.4995 63.9087C71.4995 64.636 71.6358 65.2724 71.9085 65.7724C72.1813 66.2724 72.5449 66.6815 72.9995 66.9542C73.454 67.2269 73.954 67.3633 74.4995 67.3633C75.0449 67.3633 75.5449 67.2269 75.9995 66.9542C76.454 66.6815 76.8176 66.2724 77.0904 65.7724C77.3631 65.2269 77.4995 64.636 77.4995 63.9087C77.4995 63.1815 77.3631 62.5451 77.0904 62.0451C76.8176 61.4996 76.454 61.136 75.9995 60.8633ZM76.2267 66.1815C75.7722 66.7269 75.1813 66.9996 74.4995 66.9996C73.8176 66.9996 73.1813 66.7269 72.7722 66.1815C72.3176 65.636 72.0904 64.9087 72.0904 63.9087C72.0904 62.9087 72.3176 62.1815 72.7722 61.636C73.2267 61.0906 73.8176 60.8178 74.4995 60.8178C75.1813 60.8178 75.8176 61.0906 76.2267 61.636C76.6813 62.1815 76.9085 62.9087 76.9085 63.9087C76.9085 64.9087 76.6813 65.636 76.2267 66.1815Z" fill="white"/>
<path id="Vector_28" d="M83.1362 64.3178C82.7725 64.0451 82.1816 63.7724 81.4089 63.5906C80.7271 63.4087 80.1816 63.2269 79.9089 63.0451C79.5907 62.8633 79.4544 62.5451 79.4544 62.1815C79.4544 61.8178 79.6362 61.4542 79.9544 61.1815C80.2725 60.9087 80.6816 60.8178 81.2271 60.8178C81.7725 60.8178 82.0907 60.9087 82.4089 61.136C82.7725 61.3633 82.9998 61.636 83.1362 62.0451L83.5907 61.9087C83.4089 61.4542 83.0907 61.0906 82.6816 60.8178C82.2725 60.5451 81.7725 60.4542 81.2271 60.4542C80.6816 60.4542 80.4089 60.5451 80.0907 60.6815C79.7271 60.8178 79.4544 61.0451 79.2725 61.3178C79.0907 61.5906 78.9544 61.9087 78.9544 62.2724C78.9544 62.636 79.1362 63.1815 79.4998 63.4542C79.8634 63.7269 80.4544 63.9542 81.2725 64.136C81.9544 64.2724 82.4544 64.4996 82.7271 64.6815C83.0453 64.9087 83.1816 65.2269 83.1816 65.636C83.1816 66.0451 82.9998 66.4087 82.6816 66.636C82.3634 66.9087 81.9089 67.0451 81.318 67.0451C80.7271 67.0451 80.318 66.9087 79.9544 66.6815C79.5453 66.4542 79.2725 66.0906 79.0907 65.636L78.6362 65.7724C78.8634 66.3178 79.1816 66.7269 79.6816 66.9996C80.1816 67.2724 80.6816 67.4087 81.318 67.4087C81.9544 67.4087 82.5453 67.2269 82.9998 66.9087C83.4544 66.5906 83.6816 66.136 83.6816 65.5906C83.6816 65.0451 83.4998 64.636 83.1362 64.3633V64.3178Z" fill="white"/>
<path id="Vector_29" d="M89.7726 60.8633C89.3635 60.5906 88.8635 60.4542 88.3635 60.4542C87.8635 60.4542 87.2272 60.636 86.7272 60.9996C86.3635 61.2724 86.0453 61.636 85.8635 62.0451V60.5906H85.3181V69.8633H85.909V65.9542C86.0908 66.3178 86.3635 66.5906 86.7272 66.8633C87.1817 67.1815 87.7272 67.3633 88.3181 67.3633C88.909 67.3633 89.3635 67.2269 89.7726 66.9542C90.2272 66.6815 90.5453 66.2724 90.8181 65.7724C91.0908 65.2269 91.1817 64.636 91.1817 63.9087C91.1817 63.1815 91.0453 62.5451 90.8181 62.0451C90.5453 61.4996 90.2272 61.136 89.8181 60.8633H89.7726ZM89.909 66.1815C89.4544 66.7269 88.909 66.9996 88.2272 66.9996C87.5453 66.9996 87.1817 66.8178 86.7726 66.4996C86.3181 66.1815 86.0453 65.7269 85.909 65.1815V62.8178C86.0453 62.2269 86.3635 61.7724 86.8181 61.4087C87.2726 61.0451 87.7726 60.8633 88.3181 60.8633C88.8635 60.8633 89.5908 61.136 89.9999 61.6815C90.409 62.2269 90.6362 62.9542 90.6362 63.9542C90.6362 64.9542 90.409 65.6815 89.9999 66.2269H89.909V66.1815Z" fill="white"/>
<path id="Vector_30" d="M95.9998 60.4547C95.4544 60.4547 94.9544 60.591 94.4998 60.8637C94.0907 61.1365 93.7271 61.4092 93.4544 61.8183V57.5456H92.8635V67.2274H93.4544V62.2728C93.7726 61.8637 94.1362 61.5001 94.5907 61.2728C95.0453 61.0001 95.4998 60.9092 95.9544 60.9092C96.4089 60.9092 96.818 61.0456 97.0907 61.3637C97.3635 61.6819 97.4998 62.091 97.4998 62.6365V67.2274H98.0907V62.5456C98.0907 61.8637 97.9089 61.3637 97.5453 61.0001C97.1817 60.6365 96.6817 60.4547 96.0453 60.4547H95.9998Z" fill="white"/>
<path id="Vector_31" d="M103.956 60.8633C103.547 60.5906 103.047 60.4542 102.547 60.4542C102.047 60.4542 101.547 60.5906 101.092 60.8633C100.638 61.136 100.274 61.5451 100.047 62.0451C99.774 62.5451 99.6376 63.1815 99.6376 63.9087C99.6376 64.636 99.774 65.2724 100.047 65.7724C100.319 66.2724 100.638 66.6815 101.092 66.9542C101.547 67.2269 102.047 67.3633 102.592 67.3633C103.138 67.3633 103.819 67.2269 104.229 66.8633C104.638 66.5451 104.956 66.136 105.183 65.5906L104.729 65.4542C104.547 65.9087 104.319 66.2724 103.956 66.5451C103.638 66.8178 103.183 66.9542 102.638 66.9542C102.092 66.9542 101.819 66.8178 101.456 66.5906C101.092 66.3633 100.819 65.9996 100.592 65.5451C100.41 65.0906 100.274 64.5451 100.274 63.9087H105.41V63.6815C105.41 63.0451 105.274 62.4542 105.047 61.9542C104.819 61.4542 104.456 61.0906 104.047 60.8178H103.956V60.8633ZM100.229 63.5451C100.229 63.0451 100.365 62.5906 100.547 62.2269C100.774 61.7724 101.047 61.4087 101.41 61.1815C101.774 60.9542 102.138 60.8178 102.592 60.8178C103.274 60.8178 103.774 61.0906 104.183 61.5906C104.592 62.0906 104.774 62.7269 104.774 63.5451H100.229Z" fill="white"/>
<path id="Vector_32" d="M108.455 60.8631C108.092 61.1359 107.819 61.4995 107.546 61.8632V60.545H107.001V67.1813H107.592V62.2268C107.91 61.8177 108.228 61.4541 108.592 61.2722C108.955 61.045 109.319 60.9541 109.683 60.9541H110.092V60.4086H109.728C109.228 60.4086 108.819 60.545 108.455 60.8631Z" fill="white"/>
<path id="Vector_33" d="M116.092 61.9996C115.864 61.4996 115.501 61.136 115.092 60.8633C114.682 60.5906 114.182 60.4542 113.682 60.4542C113.182 60.4542 112.682 60.5906 112.228 60.8633C111.773 61.136 111.41 61.5451 111.182 62.0451C110.91 62.5451 110.773 63.1815 110.773 63.9087C110.773 64.636 110.91 65.2724 111.182 65.7724C111.455 66.2724 111.773 66.6815 112.228 66.9542C112.682 67.2269 113.182 67.3633 113.728 67.3633C114.273 67.3633 114.955 67.2269 115.364 66.8633C115.773 66.5451 116.092 66.136 116.319 65.5906L115.864 65.4542C115.682 65.9087 115.455 66.2724 115.092 66.5451C114.773 66.8178 114.319 66.9542 113.773 66.9542C113.228 66.9542 112.955 66.8178 112.592 66.5906C112.228 66.3633 111.955 65.9996 111.728 65.5451C111.546 65.0906 111.41 64.5451 111.41 63.9087H116.546V63.6815C116.546 63.0451 116.41 62.4542 116.182 61.9542H116.092V61.9996ZM111.319 63.5451C111.319 63.0451 111.455 62.5906 111.637 62.2269C111.864 61.7724 112.137 61.4087 112.501 61.1815C112.864 60.9542 113.228 60.8178 113.682 60.8178C114.364 60.8178 114.864 61.0906 115.273 61.5906C115.682 62.0906 115.864 62.7269 115.864 63.5451H111.319Z" fill="white"/>
<path id="Vector_34" d="M14.7266 79.9544C14.5447 79.8635 14.3175 79.6362 14.0447 79.4089C13.9084 79.2726 13.6811 79.0907 13.4993 78.8635C13.8175 78.4089 14.0902 77.9544 14.272 77.4544C14.4993 76.9089 14.6811 76.318 14.772 75.6362H14.3175C14.2266 76.2271 14.0902 76.7726 13.9084 77.318C13.7266 77.7726 13.4993 78.2271 13.2266 78.5907C13.1356 78.4998 13.0447 78.3635 12.9084 78.2726C12.0902 77.3635 11.2266 76.4089 10.272 75.318C11.0447 74.9544 11.6356 74.5453 11.9993 74.1816C12.4084 73.7726 12.5902 73.2726 12.5902 72.6816C12.5902 72.0907 12.4993 71.9998 12.3175 71.6816C12.1356 71.4089 11.8629 71.1362 11.5447 70.9998C11.2266 70.818 10.8629 70.7726 10.4993 70.7726C10.1356 70.7726 9.72655 70.8635 9.40837 70.9998C9.09019 71.1816 8.81746 71.4089 8.63564 71.7271C8.45383 72.0453 8.36292 72.3635 8.36292 72.7726C8.36292 73.1816 8.45383 73.5907 8.6811 73.9998C8.86292 74.3635 9.1811 74.818 9.63564 75.318C8.86292 75.6816 8.27201 76.0907 7.86292 76.4998C7.40837 76.9544 7.1811 77.5453 7.1811 78.2271C7.1811 78.9089 7.31746 79.1816 7.54473 79.5453C7.77201 79.9089 8.13564 80.2271 8.59019 80.4544C9.04473 80.6816 9.54473 80.7726 10.1356 80.7726C10.7266 80.7726 11.3175 80.6362 11.8629 80.3635C12.3629 80.0907 12.8175 79.7726 13.2266 79.318C13.4993 79.5907 13.6811 79.818 13.8629 79.9544C14.1356 80.2271 14.4084 80.4089 14.6356 80.4998C14.8629 80.5907 15.1356 80.6362 15.4084 80.6362H15.7266V80.1816H15.4538C15.2266 80.1816 15.0447 80.1362 14.8629 79.9998H14.7266V79.9544ZM9.09019 73.7271C8.90837 73.3635 8.81746 72.9998 8.81746 72.6816C8.81746 72.2271 8.95382 71.8635 9.27201 71.5453C9.59019 71.2271 9.95383 71.0907 10.4538 71.0907C10.9538 71.0907 11.272 71.2271 11.5902 71.5453C11.9084 71.8635 12.0447 72.2271 12.0447 72.6816C12.0447 73.1362 11.8629 73.5907 11.5447 73.9998C11.2266 74.3635 10.7266 74.7271 10.0447 75.0453C9.63564 74.5453 9.31746 74.1362 9.13564 73.7726L9.09019 73.7271ZM11.6356 79.9089C11.1356 80.1816 10.5902 80.318 10.0902 80.318C9.59019 80.318 9.22655 80.2271 8.81746 80.0453C8.45382 79.8635 8.1811 79.5907 7.95383 79.2725C7.77201 78.9544 7.63564 78.5907 7.63564 78.1816C7.63564 77.5453 7.81746 77.0453 8.1811 76.6362C8.54473 76.2726 9.04473 75.9089 9.72655 75.5453C10.4538 76.4089 11.3629 77.4089 12.4538 78.6362C12.5902 78.7726 12.6811 78.9089 12.8175 78.9998C12.4538 79.3635 12.0902 79.6816 11.6356 79.9544V79.9089Z" fill="white"/>
<path id="Vector_35" d="M24.9079 75.1363C24.7261 74.8181 24.4534 74.5 24.0897 74.2727C23.6352 73.9545 23.0897 73.7727 22.4988 73.7727C21.9079 73.7727 21.4534 73.9091 21.0443 74.1818C20.5897 74.4545 20.2716 74.8636 19.9988 75.3636C19.7261 75.9091 19.6352 76.5 19.6352 77.2272C19.6352 77.9545 19.7716 78.5909 19.9988 79.0909C20.2716 79.6363 20.5897 80 20.9988 80.2727C21.4079 80.5454 21.9079 80.6818 22.4079 80.6818C22.9079 80.6818 23.5443 80.5 24.0443 80.1363C24.4534 79.8636 24.7261 79.5 24.9079 79.0454V80.5H25.4534V70.8181H24.8625V75.0909H24.9079V75.1363ZM24.0443 79.7272C23.5897 80.0909 23.0897 80.2727 22.5443 80.2727C21.9988 80.2727 21.2716 80 20.8625 79.4545C20.4534 78.9091 20.2261 78.1818 20.2261 77.1818C20.2261 76.1818 20.4534 75.4545 20.8625 74.9091C21.317 74.3636 21.8625 74.0909 22.5443 74.0909C23.2261 74.0909 23.5897 74.2727 23.9988 74.5909C24.4534 74.9091 24.7261 75.3636 24.8625 75.9091V78.2727C24.7261 78.8181 24.4079 79.3181 23.9534 79.6818H24.0443V79.7272Z" fill="white"/>
<path id="Vector_36" d="M31.501 74.1817C31.0919 73.909 30.5919 73.7726 30.0919 73.7726C29.5919 73.7726 29.0919 73.909 28.6374 74.1817C28.1828 74.4545 27.8192 74.8636 27.5919 75.3636C27.3192 75.8636 27.1828 76.4999 27.1828 77.2272C27.1828 77.9545 27.3192 78.5908 27.5919 79.0908C27.8646 79.6363 28.1828 79.9999 28.6374 80.2726C29.0919 80.5454 29.5919 80.6817 30.1374 80.6817C30.6828 80.6817 31.3646 80.5454 31.7737 80.1817C32.1828 79.8635 32.501 79.4545 32.7283 78.909L32.2737 78.7726C32.0919 79.2272 31.8646 79.5908 31.501 79.8636C31.1828 80.1363 30.7283 80.2726 30.1828 80.2726C29.6374 80.2726 29.3646 80.1363 29.001 79.909C28.6374 79.6817 28.3646 79.3181 28.1374 78.8636C27.9555 78.409 27.8192 77.8635 27.8192 77.2272H32.9555V76.9999C32.9555 76.3635 32.8192 75.7726 32.5919 75.2726C32.3646 74.7726 32.001 74.409 31.5919 74.1363H31.501V74.1817ZM27.7283 76.8636C27.7283 76.3636 27.8646 75.909 28.0464 75.5454C28.2737 75.0908 28.5464 74.7272 28.9101 74.4999C29.2737 74.2726 29.6374 74.1363 30.0919 74.1363C30.7737 74.1363 31.2737 74.409 31.6828 74.909C32.0919 75.409 32.2737 76.0454 32.2737 76.8636H27.7283Z" fill="white"/>
<path id="Vector_37" d="M38.5009 77.5907C38.1373 77.318 37.5464 77.0452 36.7736 76.8634C36.0918 76.6816 35.5464 76.5452 35.2736 76.318C34.9555 76.1361 34.8191 75.818 34.8191 75.4543C34.8191 75.0907 35.0009 74.7271 35.3191 74.4543C35.6373 74.1816 36.0464 74.0907 36.5918 74.0907C37.1373 74.0907 37.4555 74.1816 37.7736 74.4089C38.1373 74.6361 38.3646 74.9089 38.5009 75.318L38.9555 75.1816C38.7736 74.727 38.4555 74.3634 38.0464 74.0907C37.6373 73.818 37.1373 73.7271 36.5918 73.7271C36.0464 73.7271 35.7736 73.818 35.4555 73.9543C35.0918 74.0907 34.8191 74.318 34.6373 74.5907C34.4555 74.8634 34.3191 75.1816 34.3191 75.5452C34.3191 75.9089 34.5009 76.4543 34.8646 76.7271C35.2282 76.9998 35.8191 77.2271 36.6373 77.4089C37.3191 77.5452 37.8191 77.7725 38.0918 77.9543C38.41 78.1816 38.5464 78.4998 38.5464 78.9089C38.5464 79.318 38.3646 79.6816 38.0464 79.9089C37.7282 80.1816 37.2736 80.318 36.6827 80.318C36.0918 80.318 35.6827 80.1816 35.3191 79.9543C34.91 79.727 34.6373 79.3634 34.4555 78.9089L34.0009 79.0452C34.2282 79.5907 34.5464 79.9998 35.0464 80.2725C35.5464 80.5452 36.0918 80.6816 36.6827 80.6816C37.2736 80.6816 37.91 80.4998 38.3646 80.1816C38.8191 79.8634 39.0464 79.4089 39.0464 78.8634C39.0464 78.318 38.8646 77.9089 38.5009 77.6361V77.5907Z" fill="white"/>
<path id="Vector_38" d="M41.2737 73.9086H40.6828V80.545H41.2737V73.9086Z" fill="white"/>
<path id="Vector_39" d="M41.273 71.6361H40.6367V72.7724H41.273V71.6361Z" fill="white"/>
<path id="Vector_40" d="M48.273 75.2271C48.0911 74.818 47.773 74.4998 47.4093 74.2271C46.9548 73.9089 46.4093 73.7271 45.8184 73.7271C45.2275 73.7271 44.773 73.8634 44.3639 74.1361C43.9548 74.4089 43.5911 74.7725 43.3184 75.2725C43.0457 75.7725 42.9548 76.4089 42.9548 77.1361C42.9548 77.8634 43.0911 78.4543 43.3184 78.9998C43.5911 79.4998 43.9093 79.9089 44.3184 80.1361C44.7275 80.4089 45.2275 80.5452 45.7275 80.5452C46.2275 80.5452 46.8639 80.3634 47.3639 79.9998C47.7275 79.7271 48.0002 79.4089 48.2275 78.9998V80.2725C48.2275 81.1816 48.0457 81.8634 47.6366 82.2725C47.2275 82.6816 46.6821 82.9089 46.0002 82.9089C45.3184 82.9089 44.9093 82.7725 44.5457 82.4998C44.1821 82.2271 43.9093 81.818 43.773 81.3634H43.1821C43.3184 81.9998 43.6366 82.4543 44.1366 82.818C44.6366 83.1816 45.2275 83.318 46.0002 83.318C46.773 83.318 47.5457 83.0452 48.0457 82.5452C48.5457 82.0452 48.8184 81.2725 48.8184 80.2725V73.9089H48.4548L48.3184 75.2725H48.273V75.2271ZM48.2275 78.1816C48.0911 78.7725 47.773 79.2271 47.3184 79.5907C46.8639 79.9543 46.3639 80.1361 45.8184 80.1361C45.273 80.1361 44.5457 79.8634 44.1366 79.3634C43.7275 78.8634 43.5002 78.0907 43.5002 77.1361C43.5002 76.1816 43.7275 75.4543 44.1366 74.9089C44.5911 74.4089 45.1366 74.1361 45.8184 74.1361C46.5002 74.1361 46.8639 74.318 47.273 74.6361C47.7275 74.9543 48.0002 75.4089 48.1366 75.9543V78.1816H48.2275Z" fill="white"/>
<path id="Vector_41" d="M53.9991 73.7725C53.4536 73.7725 52.9536 73.9089 52.4991 74.1816C52.09 74.4543 51.7264 74.7725 51.4082 75.1361V73.9089H50.8627V80.5452H51.4536V75.5907C51.7718 75.1816 52.1355 74.818 52.59 74.5907C53.0446 74.318 53.4991 74.1816 53.9536 74.1816C54.4082 74.1816 54.8173 74.318 55.09 74.6361C55.3627 74.9543 55.4991 75.3634 55.4991 75.9089V80.4998H56.09V75.818C56.09 75.1361 55.9082 74.6361 55.5446 74.2725C55.1809 73.9089 54.6809 73.7271 54.0446 73.7271H53.9991V73.7725Z" fill="white"/>
</g>
<defs>
<clipPath id="clip0_0_4">
<rect width="161.5" height="90" fill="white"/>
</clipPath>
</defs>
</svg>
